<?xml version="1.0" encoding="iso-8859-1"?>
<!-- Generator: Adobe Illustrator 19.0.0, SVG Export Plug-In . SVG Version: 6.00 Build 0)  -->
<svg version="1.1" id="Layer_1" xmlns="http://www.w3.org/2000/svg" xmlns:xlink="http://www.w3.org/1999/xlink" x="0px" y="0px"
	 viewBox="0 0 502 502" style="enable-background:new 0 0 502 502;" xml:space="preserve">
<g>
	<path style="fill:#D1E2EB;" d="M10,456c0,19.882,16.118,36,36,36h410c19.882,0,36-16.118,36-36V46c0-19.882-16.118-36-36-36H46
		c-19.882,0-36,16.118-36,36V456z"/>
	<path style="fill:#4EC9DC;" d="M185.3,108.5h-34.8V73.7c0-11.046-8.954-20-20-20s-20,8.954-20,20v34.8H75.7
		c-11.046,0-20,8.954-20,20s8.954,20,20,20h34.8v34.8c0,11.046,8.954,20,20,20s20-8.954,20-20v-34.8h34.8c11.046,0,20-8.954,20-20
		S196.346,108.5,185.3,108.5z"/>
	<path style="fill:#4EC9DC;" d="M161.673,372.25l27.12-27.121c8.608-8.609,8.608-22.565,0-31.173
		c-8.609-8.609-22.564-8.609-31.173,0l-27.12,27.12l-27.12-27.12c-8.608-8.608-22.565-8.607-31.173,0
		c-8.608,8.608-8.608,22.564,0,31.173l27.12,27.121l-27.12,27.121c-8.608,8.609-8.608,22.565,0,31.173
		c4.304,4.304,9.945,6.456,15.587,6.456s11.282-2.152,15.586-6.456l27.12-27.12l27.12,27.12c4.304,4.304,9.945,6.456,15.587,6.456
		c5.641,0,11.283-2.153,15.587-6.456c8.608-8.608,8.608-22.564,0-31.173L161.673,372.25z"/>
	<path style="fill:#4EC9DC;" d="M427.3,148.5H317.7c-11.046,0-20-8.954-20-20s8.954-20,20-20h109.6c11.046,0,20,8.954,20,20
		S438.346,148.5,427.3,148.5z"/>
	<path style="fill:#4EC9DC;" d="M412.9,351h-80.8c-11.046,0-20-8.954-20-20s8.954-20,20-20h80.8c11.046,0,20,8.954,20,20
		S423.946,351,412.9,351z"/>
	<path style="fill:#4EC9DC;" d="M412.9,429h-80.8c-11.046,0-20-8.954-20-20s8.954-20,20-20h80.8c11.046,0,20,8.954,20,20
		S423.946,429,412.9,429z"/>
	<g>
		<path d="M0,456c0,25.364,20.636,46,46,46h410c25.364,0,46-20.636,46-46V46c0-25.364-20.636-46-46-46H46C20.636,0,0,20.636,0,46
			V456z M482,46v195H261V20h195C470.337,20,482,31.663,482,46z M20,46c0-14.337,11.663-26,26-26h195v221H20V46z M20,456V261h221v221
			H46C31.663,482,20,470.337,20,456z M482,456c0,14.337-11.663,26-26,26H261V261h221V456z"/>
		<path d="M185.3,98.5h-24.8V73.7c0-16.542-13.458-30-30-30s-30,13.458-30,30v24.8H75.7c-16.542,0-30,13.458-30,30s13.458,30,30,30
			h24.8v24.8c0,16.542,13.458,30,30,30s30-13.458,30-30v-24.8h24.8c16.542,0,30-13.458,30-30S201.842,98.5,185.3,98.5z M185.3,138.5
			h-34.8c-5.522,0-10,4.478-10,10v34.8c0,5.514-4.486,10-10,10s-10-4.486-10-10v-34.8c0-5.522-4.478-10-10-10H75.7
			c-5.514,0-10-4.486-10-10s4.486-10,10-10h34.8c5.522,0,10-4.478,10-10V73.7c0-5.514,4.486-10,10-10c5.514,0,10,4.486,10,10v34.8
			c0,5.522,4.478,10,10,10h34.8c5.514,0,10,4.486,10,10C195.3,134.014,190.813,138.5,185.3,138.5z"/>
		<path d="M205.249,329.543c0-8.559-3.333-16.605-9.385-22.657c-12.493-12.491-32.82-12.493-45.315,0L130.5,326.935l-20.049-20.048
			c-6.052-6.053-14.099-9.386-22.658-9.386s-16.605,3.333-22.656,9.385c-6.053,6.052-9.386,14.099-9.386,22.657
			c0,8.56,3.333,16.605,9.385,22.658l20.05,20.049l-20.05,20.05c-6.052,6.053-9.385,14.099-9.385,22.658s3.333,16.605,9.384,22.656
			C71.187,443.667,79.233,447,87.793,447s16.606-3.333,22.658-9.385l20.049-20.049l20.049,20.049
			c6.052,6.052,14.099,9.385,22.658,9.385s16.605-3.333,22.656-9.385c6.053-6.052,9.386-14.099,9.386-22.657
			c0-8.56-3.333-16.605-9.385-22.658l-20.05-20.05l20.05-20.049C201.916,346.148,205.249,338.103,205.249,329.543z M181.722,338.059
			l-27.12,27.12c-3.905,3.905-3.905,10.237,0,14.143l27.12,27.121c2.274,2.274,3.527,5.299,3.527,8.516s-1.252,6.24-3.527,8.515
			c-2.274,2.274-5.298,3.527-8.515,3.527s-6.241-1.253-8.516-3.527l-27.12-27.12c-1.953-1.952-4.512-2.929-7.071-2.929
			s-5.118,0.977-7.071,2.929l-27.12,27.12C94.034,425.747,91.01,427,87.793,427s-6.24-1.252-8.516-3.527
			c-2.274-2.274-3.526-5.298-3.526-8.515s1.253-6.241,3.527-8.516l27.12-27.121c3.905-3.905,3.905-10.237,0-14.143l-27.12-27.12
			c-2.274-2.274-3.527-5.299-3.527-8.516s1.252-6.24,3.527-8.515c2.274-2.274,5.299-3.527,8.516-3.527s6.24,1.253,8.515,3.527
			l27.12,27.12c3.906,3.904,10.236,3.904,14.143,0l27.12-27.12c4.695-4.695,12.334-4.695,17.031,0
			c2.274,2.274,3.526,5.298,3.526,8.515S183.996,335.784,181.722,338.059z"/>
		<path d="M287.7,128.5c0,16.542,13.458,30,30,30h109.6c16.542,0,30-13.458,30-30s-13.458-30-30-30H317.7
			C301.158,98.5,287.7,111.958,287.7,128.5z M317.7,118.5h109.6c5.514,0,10,4.486,10,10c0,5.514-4.486,10-10,10H317.7
			c-5.514,0-10-4.486-10-10S312.187,118.5,317.7,118.5z"/>
		<path d="M332.1,361h80.8c16.542,0,30-13.458,30-30s-13.458-30-30-30h-80.8c-16.542,0-30,13.458-30,30S315.558,361,332.1,361z
			 M332.1,321h80.8c5.514,0,10,4.486,10,10s-4.486,10-10,10h-80.8c-5.514,0-10-4.486-10-10S326.586,321,332.1,321z"/>
		<path d="M332.1,439h80.8c16.542,0,30-13.458,30-30s-13.458-30-30-30h-80.8c-16.542,0-30,13.458-30,30S315.558,439,332.1,439z
			 M332.1,399h80.8c5.514,0,10,4.486,10,10s-4.486,10-10,10h-80.8c-5.514,0-10-4.486-10-10S326.586,399,332.1,399z"/>
		<path d="M333,51h119c5.522,0,10-4.478,10-10s-4.478-10-10-10H333c-5.522,0-10,4.478-10,10S327.478,51,333,51z"/>
		<path d="M284,51h17c5.522,0,10-4.478,10-10s-4.478-10-10-10h-17c-5.522,0-10,4.478-10,10S278.478,51,284,51z"/>
	</g>
</g>
<g>
</g>
<g>
</g>
<g>
</g>
<g>
</g>
<g>
</g>
<g>
</g>
<g>
</g>
<g>
</g>
<g>
</g>
<g>
</g>
<g>
</g>
<g>
</g>
<g>
</g>
<g>
</g>
<g>
</g>
</svg>
